<?xml version="1.0" encoding="UTF-8"?>
<svg id="Layer_1" xmlns="http://www.w3.org/2000/svg" baseProfile="tiny" version="1.2" viewBox="0 0 256 256">
  <!-- Generator: Adobe Illustrator 30.2.1, SVG Export Plug-In . SVG Version: 2.1.1 Build 1)  -->
  <path d="M196,0H60C26.86,0,0,26.86,0,60v136c0,33.14,26.86,60,60,60h136c33.14,0,60-26.86,60-60V60c0-33.14-26.86-60-60-60Z" fill="#242938"/>
  <path d="M203.83,94.17c-.39-.4-.8-.8-1.22-1.18-.41-.38-.8-.8-1.22-1.18s-.8-.8-1.22-1.18c-.41-.38-.8-.8-1.22-1.18s-.8-.8-1.22-1.18-.8-.8-1.22-1.18-.8-.8-1.22-1.18c12.1,11.46,19.03,27.06,19.29,43.42,0,38.97-41.03,70.68-91.47,70.68-28.24,0-53.51-9.95-70.32-25.54l1.22,1.18,1.22,1.18,1.22,1.18,1.22,1.18,1.22,1.18,1.22,1.18,1.22,1.18c16.78,16.25,42.61,26.72,71.54,26.72,50.44,0,91.47-31.7,91.47-70.56,0-16.61-7.41-32.34-20.51-44.71h0Z"/>
  <path d="M208.49,129.35c0,35.77-38.22,64.77-85.37,64.77s-85.37-29-85.37-64.77c0-22.18,14.63-41.77,37.12-53.39,22.49-11.62,36.49-23.52,48.25-23.52s21.81,9.71,48.25,23.52c22.49,11.61,37.12,31.21,37.12,53.39Z" fill="#fbf0df"/>
  <path d="M208.49,129.35c-.01-4.6-.67-9.18-1.95-13.59-6.66,78.32-105.73,82.08-144.69,58.66,17.51,13.09,39.12,20.04,61.27,19.71,47.07,0,85.37-29.05,85.37-64.77Z" fill="#f6dece"/>
  <path d="M90.27,71.66c10.9-6.3,25.39-18.13,39.64-18.16-2.2-.68-4.48-1.04-6.78-1.06-5.9,0-12.2,2.94-20.12,7.36-2.76,1.55-5.61,3.27-8.63,5.06-5.68,3.39-12.2,7.22-19.51,11.05-23.22,12.11-37.1,32.08-37.1,53.44v2.8c14.78-50.36,41.64-54.19,52.51-60.49Z" fill="#fffefc"/>
  <path d="M116.1,58.39c.03,5.57-1.18,11.07-3.54,16.11-2.4,5.09-5.87,9.6-10.19,13.22-.68.59-.15,1.72.73,1.39,8.22-3.08,19.32-12.3,14.63-30.9-.2-1.06-1.63-.78-1.63.19ZM121.63,58.39c2.97,4.67,4.87,9.94,5.56,15.43.68,5.47.12,11.01-1.63,16.25-.29.82.76,1.53,1.34.85,5.34-6.59,10-19.66-3.95-33.78-.71-.61-1.8.33-1.32,1.15v.09ZM128.37,57.99c4.64,3.16,8.55,7.28,11.47,12.08,2.87,4.74,4.66,10.06,5.24,15.58-.02.2.03.4.15.56.27.33.74.41,1.09.18.17-.11.29-.28.34-.48,2.24-8.21.98-22.2-17.49-29.47-.98-.38-1.61.89-.8,1.46v.09ZM83.34,82.45c5.53-1.59,10.67-4.3,15.11-7.96,4.37-3.61,7.93-8.11,10.43-13.21.44-.85,1.83-.52,1.61.42-4.22,18.82-18.34,22.74-27.12,22.23-.93.02-.9-1.22-.02-1.48Z" fill="#ccbea7"/>
  <path d="M123.12,200.03c-50.44,0-91.47-31.71-91.47-70.68,0-23.52,15.07-45.46,40.32-58.61,7.32-3.76,13.59-7.55,19.17-10.87,3.07-1.83,5.98-3.55,8.78-5.15,8.56-4.89,15.88-8.16,23.2-8.16s13.71,2.82,21.71,7.39c2.44,1.34,4.88,2.8,7.49,4.4,6.07,3.62,12.93,7.71,21.95,12.4,25.24,13.15,40.32,35.07,40.32,58.61,0,38.97-41.03,70.68-91.47,70.68ZM123.12,52.44c-5.9,0-12.2,2.94-20.12,7.36-2.76,1.55-5.61,3.27-8.63,5.06-5.68,3.39-12.2,7.22-19.51,11.05-23.22,12.11-37.1,32.08-37.1,53.44,0,35.73,38.29,64.8,85.37,64.8s85.37-29.07,85.37-64.8c0-21.36-13.88-41.32-37.12-53.39-9.22-4.7-16.42-9.13-22.24-12.61-2.66-1.57-5.1-3.03-7.32-4.33-7.39-4.23-12.78-6.59-18.68-6.59Z"/>
  <path d="M140.32,146.52c-1.1,4.33-3.59,8.21-7.12,11.08-2.69,2.49-6.11,4.05-9.76,4.42-3.76-.31-7.3-1.87-10.07-4.42-3.5-2.88-5.95-6.76-7.02-11.08-.04-.26,0-.52.08-.76.09-.25.23-.47.41-.65.39-.37.92-.55,1.46-.49h30.1c.53-.05,1.06.13,1.44.5.38.36.56.88.48,1.4Z" fill="#b71422"/>
  <path d="M113.37,157.79c2.77,2.55,6.3,4.12,10.05,4.47,3.74-.35,7.26-1.92,10.02-4.47.87-.78,1.68-1.62,2.44-2.52-1.52-1.65-3.35-2.98-5.39-3.91-2.06-.94-4.29-1.45-6.56-1.52-2.42.05-4.8.68-6.93,1.82-2.11,1.13-3.91,2.75-5.26,4.72.56.49,1.05.96,1.63,1.41Z" fill="#ff6164"/>
  <path d="M113.76,155.93c1.22-1.52,2.77-2.74,4.53-3.58,1.78-.85,3.72-1.3,5.69-1.31,3.63.09,7.1,1.51,9.76,3.98.56-.59,1.1-1.2,1.61-1.81-3.1-2.85-7.2-4.47-11.49-4.54-2.28.02-4.54.52-6.61,1.49-2.05.95-3.86,2.34-5.32,4.06.58.6,1.19,1.18,1.83,1.72Z"/>
  <path d="M123.34,163.43c-4.04-.33-7.85-1.99-10.85-4.7-3.78-3.08-6.43-7.24-7.59-11.88-.08-.41-.07-.84.04-1.25.11-.41.31-.79.59-1.11.34-.39.76-.7,1.23-.91.48-.21,1-.31,1.52-.29h30.1c.52-.01,1.04.09,1.52.3.47.21.9.51,1.24.9.28.32.48.7.58,1.11.11.41.12.83.03,1.24-1.15,4.64-3.81,8.8-7.59,11.88-3,2.71-6.8,4.37-10.83,4.7ZM108.29,146.03c-.39,0-.49.16-.51.21,1.03,4.02,3.36,7.62,6.66,10.28,2.44,2.3,5.57,3.75,8.9,4.12,3.33-.36,6.45-1.79,8.9-4.07,3.29-2.66,5.61-6.26,6.63-10.28-.05-.08-.13-.14-.21-.17-.09-.04-.18-.05-.27-.04l-30.1-.05Z"/>
  <path d="M160.24,147.98c7.88,0,14.27-3.62,14.27-8.09s-6.39-8.09-14.27-8.09-14.27,3.62-14.27,8.09,6.39,8.09,14.27,8.09h0ZM86.41,147.98c7.88,0,14.27-3.62,14.27-8.09s-6.39-8.09-14.27-8.09-14.27,3.62-14.27,8.09,6.39,8.09,14.27,8.09h0Z" fill="#febbd0"/>
  <path d="M93.12,136.64c2.65,0,5.24-.75,7.47-2.17,2.2-1.4,3.92-3.42,4.96-5.81,1.02-2.36,1.29-4.97.77-7.49-.53-2.53-1.8-4.85-3.67-6.64-1.9-1.83-4.29-3.06-6.88-3.55-2.61-.5-5.3-.25-7.77.73-2.44.96-4.54,2.62-6.04,4.77-1.47,2.11-2.26,4.63-2.27,7.2,0,3.43,1.41,6.73,3.93,9.15,2.52,2.43,5.93,3.8,9.49,3.8ZM153.54,136.64c2.65.02,5.25-.72,7.49-2.14,2.2-1.39,3.94-3.41,4.99-5.8,1.03-2.36,1.31-4.97.8-7.5-.52-2.54-1.79-4.86-3.66-6.66-1.9-1.83-4.29-3.07-6.88-3.57-2.61-.51-5.31-.26-7.78.72-2.44.96-4.54,2.62-6.05,4.77-1.48,2.12-2.27,4.63-2.27,7.21,0,3.42,1.39,6.71,3.89,9.14,2.5,2.43,5.9,3.8,9.45,3.82Z"/>
  <path d="M88.97,124.51c1,0,1.97-.28,2.81-.81.83-.53,1.48-1.29,1.87-2.18.39-.89.49-1.87.3-2.82-.2-.95-.68-1.82-1.38-2.5-.71-.69-1.61-1.15-2.59-1.34-.98-.19-1.99-.1-2.92.27-.92.36-1.71.99-2.27,1.79-.55.79-.85,1.74-.85,2.71,0,1.29.53,2.52,1.47,3.43.96.92,2.23,1.43,3.55,1.43h0ZM149.39,124.51c1,0,1.97-.28,2.81-.81.83-.53,1.48-1.29,1.87-2.18.39-.89.49-1.87.3-2.82-.2-.95-.68-1.82-1.38-2.5-.71-.69-1.61-1.15-2.59-1.34-.98-.19-1.99-.1-2.92.27-.92.36-1.71.99-2.27,1.79-.55.79-.85,1.74-.85,2.71,0,1.28.52,2.51,1.45,3.42.93.91,2.2,1.43,3.52,1.45h.05Z" fill="#fff"/>
</svg>