<?xml version="1.0" encoding="UTF-8"?>
<svg id="terminal" xmlns="http://www.w3.org/2000/svg" version="1.1" viewBox="0 0 256 256">
  <!-- Generator: Adobe Illustrator 30.2.1, SVG Export Plug-In . SVG Version: 2.1.1 Build 1)  -->
  <rect width="256" height="256" rx="60" ry="60" fill="#242938"/>
  <path d="M214.26,184.17c-.3-.28-.74-.37-1.15-.28-9.07-13.36-20.57-26.05-31.74-38.3l-1.82-1.99c0-.24-.1-.44-.28-.65-.17-.24-.44-.37-.74-.44l-.37-.37-.28-.2c-.34-.67-1.15-1.22-2.06-.74-3.42,1.76-6.5,4.26-9.51,6.56-4.03,3.08-7.99,6.32-11.71,9.78-1.52,1.42-3.01,2.88-4.26,4.5-.61.82-.13,1.56.58,1.9-2.64,2.6-5.28,5.28-7.95,8.09-.24.28-.37.61-.34.95s.2.67.47.88l4.67,3.55s.04.07.07.1c6.67,6.6,18.4,15.74,30.79,25.41,1.82,1.45,3.68,2.91,5.55,4.33.85,1.02,1.66,2.03,2.44,3.01.41.54,1.19.65,1.73.24.28.2.58.44.85.67.54.41,1.32.3,1.73-.2.13-.2.2-.44.24-.67.1,0,.13.07.2.07.34,0,.67-.13.91-.37l21.99-24.03c.44-.47.44-1.25-.07-1.73l.07-.07v-.03ZM151.1,175.85c.13.2.3.37.44.54,2.51,2.13,5.18,4.4,7.92,6.73l-11.06-8.46s-.67-.47-1.12-.78c-.24-.17-.44-.34-.67-.5l-.82-.67s.13-.13.2-.24l.74-.74c3.72-3.75,10.09-10.02,13.36-13.1-3.45,3.49-10.52,13.74-9,17.22M188.95,205.69l-9.14-6.97c-3.55-3.68-7.41-7.34-11.34-10.86,4.94,3.79,9.14,7.04,9.78,7.58,4.77,4.26,4.57,3.49,7.85,6.3l3.96,2.88c-.37.37-.78.71-1.12,1.08M191.26,207.45l-.17-.13c.34-.28.71-.54,1.04-.82l-.88.95h0ZM46.6,66.33c.3,1.56.58,3.08.88,4.57,1.49,7.99,2.88,15.19,5.52,20.67l1.04,4.16c.41,1.59.98,3.55,1.52,3.96,6.15,5.45,15.59,13.57,25.68,21.22.44.34,1.08.34,1.52-.04l.1.1c.24.2.5.34.82.34.34,0,.67-.13.91-.41,12.93-14.38,22.54-26.19,29.4-36.11.44-.54.65-1.15.65-1.82.44-.5.88-1.04,1.28-1.45.47-.47.44-1.25-.04-1.69-.07-.07-.13-.1-.2-.17-.04-.3-.17-.58-.37-.78-3.01-2.91-5.24-5-7.47-7.1-3.99-3.72-8.09-7.58-16.78-16.24l-.13-.13c-.13-.13-.3-.24-.47-.3-2.4-.85-7.34-1.69-13.53-2.77-9.14-1.56-21.62-3.72-32.86-7.08h-.13v-.04s-.04,0-.07.04l.1-.04s-.67.04-.82.1c-.17.1-.3.2-.41.34s-.2.28-1.02.44.17,0,.24,0h-.24v.07c.13.74.1,1.25.34,2.1-.04.2.44,2.2.5,2.4l3.96,15.7s.07-.04.07-.04ZM113.5,80.47s-.07.1-.1.1l-1.39-1.52c.47.44.95.88,1.49,1.42M98.17,100.77s-.13.17-.2.28l-.04-.04c.07-.1.13-.17.24-.24M89.41,57.33c.74.74,3.75,3.55,4.46,4.26-3.14-1.42-10.93-5.04-14.59-6.23,3.59.61,8.49,1.42,10.11,1.97M47.96,51.33c1.82,3.11,3.25,14.05,4.67,24.63-.82-3.42-1.49-6.73-2.13-9.94-1.12-5.55-2.17-10.48-3.62-14.85.3.04.67.07,1.04.1.25.03.26.05.04.07M47.35,48.73c-.5-.04-.95-.1-1.36-.1-.04-.1-.07-.17-.1-.28l1.45.37h0ZM42.55,49.68v-.04.04ZM212.27,47.15c.1-.5-2.36-2.67-1.59-2.71,1.82-.1,1.86-2.91,0-2.84-2.44.13-4.91.67-7.27,1.15-4.26.82-8.53,1.69-12.79,2.6-9.48,2.03-18.95,4.16-28.32,6.73-2.94.82-6.19,1.52-8.9,2.94-.91.47-.88,1.45-.37,2.06-.2.1-.37.17-.61.2-.82.13-1.59.28-2.4.41-.67.1-1.12.74-1.02,1.39.04.17.07.3.17.47-5,6.7-10.72,13.9-16.89,21.52-6.06,6.93-12.38,14.31-18.85,21.93-20.33,23.86-43.38,50.96-68.93,74.81-.5.44-.5,1.22-.07,1.73.1.13.28.2.41.28-.34.34-.67.65-1.04.95-.2.2-.3.44-.34.67-.17.17-.34.37-.5.54-.44.5-.44,1.28.07,1.73.5.44,1.28.44,1.73-.07.1-.1.17-.2.28-.28.67-.74,1.82-.74,2.57-.07l.07.07c1.49,1.59,2.91,3.11,4.23,4.5l-2.98-2.47c-.5-.44-1.28-.37-1.73.13s-.37,1.28.13,1.73l32.04,26.87c.24.2.5.28.82.28.34,0,.65-.13.88-.37l.78-.78c.47.2,1.02.1,1.36-.28,43.41-43.62,78.4-76.57,118.42-106.04.37-.28.54-.67.5-1.12.47-.07.88-.37,1.04-.85,7.38-22.6,8.83-42.63,9.24-52.44,0-.07.04-.1.04-.13l.1-.3c.07-.24.1-.41.1-.41.58-1.69.37-3.31-.34-4.63l-.04.1h0ZM134.65,82.5c1.93-2.23,3.86-4.4,5.78-6.53-12.45,16.37-33.06,41.61-62.26,71.63,19.86-21.99,39.9-44.8,56.47-65.1M64.31,196.66l-.07-.07c.24.04.41.1.44.1-.13-.04-.24-.04-.37-.04M79.23,210.54l-.1-.1.07-.07s.07.04.1.04c-.04.07-.07.07-.07.13M97.3,194.93l2.98-3.11s.04.07.07.1c-1.02,1.02-2.03,2.03-3.05,3.01M102.13,190.17c.58-.65,1.22-1.42,1.9-2.2.04-.04.04-.07.1-.1,7.1-7.34,14.44-14.75,21.99-22.17l.13-.13c1.86-1.42,3.92-3.01,5.89-4.5-9.78,9.37-19.72,19.01-30.01,29.1M148.93,69.41c-4.03,5.24-8.42,12.01-12.18,17.43-11.8,17.08-49.81,58.94-50.66,59.75-5.85,5.65-23.51,22.6-34.79,33.23-.3.28-.54.5-.74.74-.65-.67-.65-1.76.04-2.44,53.63-50.58,86.18-92.71,99.41-111.05-.28.71-.5,1.49-1.19,2.36l.1-.04h0ZM184.59,84.73l-.04.04s-.04-.13.04-.04M169.9,94.07c-4.87-2.84-7.17-7.08-5.85-11.34l.41-1.42c.17-.41.37-.82.61-1.22,1.28-2.13,3.21-3.99,5.45-5.11.1-.04.2-.07.34-.1-.1-.3-.13-.61-.1-.91.1-.67.54-1.25,1.42-1.25,1.45,0,5.95,1.36,7.64,2.81.5.41,1.02.88,1.45,1.36.65.74,1.59,1.99,2.06,2.88.28.13.5,1.36.82,1.97.3.98.44,1.99.37,3.01-.04.68-.03.7.04.07-.07.13,0,.82-.1.88-.2,1.56-.78,3.08-1.62,4.43-.1.1-.13.24-.24.34,0,.04-.04.04-.07.1-.65.91-1.42,1.79-2.34,2.44-2.71,1.93-5.89,2.51-9.07,1.69-.41-.17-.85-.34-1.22-.54v-.09ZM205.06,90.55c-1.04,4.43-2.36,9.07-3.89,13.81-.07.17-.07.34-.07.5-.2.04-.41.1-.58.24-9.61,7.04-18.88,14.31-28.05,21.86,7.92-7.17,15.97-14.31,24.26-21.52,2.4-2.1,4.03-4.94,4.57-8.09l1.22-7.27.07-.2c.54-1.52,2.91-.88,2.54.71l-.07-.04h0Z" fill="#6965db"/>
</svg>