<?xml version="1.0" encoding="UTF-8"?>
<svg id="Layer_1" xmlns="http://www.w3.org/2000/svg" version="1.1" xmlns:xlink="http://www.w3.org/1999/xlink" viewBox="0 0 256 256">
  <!-- Generator: Adobe Illustrator 30.2.1, SVG Export Plug-In . SVG Version: 2.1.1 Build 1)  -->
  <defs>
    <style>
      .st0 {
        fill: #085427;
      }

      .st1 {
        fill: #f0f0f0;
      }

      .st2 {
        fill: none;
      }

      .st3 {
        fill: #1f2329;
      }

      .st3, .st4 {
        display: none;
      }

      .st4 {
        fill: #3d72d7;
      }

      .st5 {
        fill: #f4f2ed;
      }

      .st6 {
        clip-path: url(#clippath);
      }

      .st7 {
        fill: #17ce61;
      }
    </style>
    <clipPath id="clippath">
      <rect class="st2" width="256" height="256"/>
    </clipPath>
  </defs>
  <g class="st6">
    <g>
      <path class="st5" d="M196,0H60C26.86,0,0,26.86,0,60v136c0,33.14,26.86,60,60,60h136c33.14,0,60-26.86,60-60V60c0-33.14-26.86-60-60-60Z"/>
      <path class="st4" d="M102.25,180.12l35.33-104.52c.13-.38.38-.7.71-.91.33-.21.73-.31,1.13-.27l14.65,1.5c.26.03.51.11.74.25.22.14.41.32.56.54.14.22.24.47.27.73.03.26,0,.52-.07.77l-34.5,103.08c-.12.35-.34.65-.64.87-.3.22-.66.33-1.02.33l-15.5-.06c-.28,0-.55-.07-.8-.2-.25-.13-.46-.31-.62-.54-.16-.23-.27-.49-.31-.76s-.02-.55.07-.82Z"/>
      <path class="st3" d="M58.74,131.41c-1.17.46-1.17.9.02,1.33,12.11,4.38,23.79,8.49,35.04,12.33.26.09.49.26.65.48.16.22.25.49.26.77.1,5.27-.04,10.57-.41,15.92-.04.54-.15,1.06-.34,1.55-.24.62-.67.8-1.28.55l-57.17-23.73c-.13-.06-.24-.15-.31-.27-.07-.12-.11-.26-.1-.39l.74-15.53c0-.19.07-.37.18-.53.11-.15.26-.28.43-.35l55.9-23.96c.14-.06.29-.09.44-.09.15,0,.3.04.44.1.14.07.26.16.36.28.1.12.18.25.22.4.3,1.02.49,2.02.56,3,.37,5,.47,9.98.3,14.95,0,.14-.06.28-.14.4-.09.12-.2.21-.34.26-10.9,4.03-22.15,8.11-33.74,12.24-.29.1-.58.16-.87.17-.43.02-.71.06-.85.11ZM198.44,131.24l-35.69-12.46c-.07-.02-.13-.07-.17-.13-.04-.06-.07-.13-.07-.2-.1-4.93-.08-9.96.06-15.07.03-1.12.21-2.16.56-3.13.13-.33.36-.45.7-.36,1.13.31,2.19.67,3.18,1.08,18.11,7.45,36.21,14.94,54.29,22.47.39.16.58.45.58.87l.03,15.71c0,.19-.06.38-.16.53-.1.16-.25.28-.43.36l-56.91,23.5c-.15.06-.31.09-.48.08-.16-.01-.32-.06-.46-.14-.14-.08-.26-.2-.34-.33-.09-.14-.14-.29-.15-.45-.59-5.97-.74-11.83-.45-17.58.01-.18.07-.35.18-.49.11-.14.25-.25.42-.3,12.33-4.15,24.1-8.38,35.33-12.68,1.15-.44,1.15-.86-.02-1.27Z"/>
    </g>
    <g>
      <circle class="st7" cx="128" cy="128" r="102.05"/>
      <path class="st1" d="M200.07,156.12H55.93c-5.85,0-10.59-4.74-10.59-10.59v-35.06c0-5.85,4.74-10.59,10.59-10.59h144.14c5.85,0,10.59,4.74,10.59,10.59v35.06c0,5.84-4.74,10.59-10.58,10.59h0Z"/>
      <path class="st0" d="M128,232.37c-57.55,0-104.37-46.82-104.37-104.37S70.45,23.63,128,23.63s104.37,46.82,104.37,104.37-46.82,104.37-104.37,104.37ZM128,28.27c-54.99,0-99.73,44.74-99.73,99.73s44.74,99.73,99.73,99.73,99.73-44.74,99.73-99.73S182.99,28.27,128,28.27Z"/>
      <rect class="st0" x="125.68" y="156.11" width="4.64" height="73.94"/>
      <rect class="st0" x="125.68" y="25.95" width="4.64" height="73.94"/>
      <path class="st0" d="M128,90.57c-30.64,0-59.61-9.71-79.47-26.64l3.01-3.53c19.04,16.22,46.91,25.53,76.46,25.53s57.42-9.3,76.46-25.53l3.01,3.53c-19.86,16.93-48.83,26.64-79.47,26.64h0Z"/>
      <path class="st0" d="M51.54,195.59l-3.01-3.53c19.86-16.93,48.83-26.64,79.47-26.64s59.6,9.71,79.47,26.63l-3.01,3.53c-19.04-16.22-46.91-25.52-76.46-25.52s-57.42,9.3-76.46,25.53Z"/>
      <path class="st0" d="M75.96,139.86c-1.28,0-2.32-1.04-2.32-2.32v-13.12c0-1.63-1.33-2.96-2.96-2.96h-3v16.08c0,1.28-1.04,2.32-2.32,2.32s-2.32-1.04-2.32-2.32v-18.4c0-1.28,1.04-2.32,2.32-2.32h5.32c4.19,0,7.6,3.41,7.6,7.6v13.12c0,1.28-1.04,2.32-2.32,2.32Z"/>
      <path class="st0" d="M65.37,121.47c-1.28,0-2.32-1.04-2.32-2.32v-10.53c0-1.28,1.04-2.32,2.32-2.32s2.32,1.04,2.32,2.32v10.53c0,1.28-1.04,2.32-2.32,2.32Z"/>
      <path class="st0" d="M91.26,139.86h-1c-3.05,0-5.52-2.48-5.52-5.52v-22.49c0-1.28,1.04-2.32,2.32-2.32s2.32,1.04,2.32,2.32v22.49c0,.49.4.89.89.89h1c1.28,0,2.32,1.04,2.32,2.32s-1.04,2.32-2.32,2.32h-.01Z"/>
      <path class="st0" d="M91.26,119.13h-6.37c-1.28,0-2.32-1.04-2.32-2.32s1.04-2.32,2.32-2.32h6.37c1.28,0,2.32,1.04,2.32,2.32s-1.04,2.32-2.32,2.32Z"/>
      <path class="st0" d="M107.28,139.86h-1c-3.05,0-5.52-2.48-5.52-5.52v-22.49c0-1.28,1.04-2.32,2.32-2.32s2.32,1.04,2.32,2.32v22.49c0,.49.4.89.89.89h1c1.28,0,2.32,1.04,2.32,2.32s-1.04,2.32-2.32,2.32h-.01Z"/>
      <path class="st0" d="M107.28,119.13h-6.37c-1.28,0-2.32-1.04-2.32-2.32s1.04-2.32,2.32-2.32h6.37c1.28,0,2.32,1.04,2.32,2.32s-1.04,2.32-2.32,2.32Z"/>
      <path class="st0" d="M126.44,139.86h-7.97c-1.28,0-2.32-1.04-2.32-2.32v-18.4c0-1.28,1.04-2.32,2.32-2.32h7.97c2.72,0,4.94,2.22,4.94,4.94v13.15c0,2.73-2.22,4.94-4.94,4.94h0ZM120.79,135.22h5.65c.17,0,.3-.14.3-.3v-13.15c0-.17-.14-.3-.3-.3h-5.65v13.76h0Z"/>
      <path class="st0" d="M118.47,149.7c-1.28,0-2.32-1.04-2.32-2.32v-9.83c0-1.28,1.04-2.32,2.32-2.32s2.32,1.04,2.32,2.32v9.83c0,1.28-1.04,2.32-2.32,2.32Z"/>
      <path class="st0" d="M145.44,139.86h-6c-1.28,0-2.32-1.04-2.32-2.32s1.04-2.32,2.32-2.32h6c1.26,0,2.28-1.02,2.28-2.28s-1.02-2.28-2.28-2.28h-2.39c-1.28,0-2.32-1.04-2.32-2.32s1.04-2.32,2.32-2.32h2.39c3.82,0,6.92,3.1,6.92,6.92s-3.1,6.92-6.92,6.92h0Z"/>
      <path class="st0" d="M145.71,130.66h-1.67c-3.82,0-6.92-3.1-6.92-6.92s3.1-6.92,6.92-6.92h3.11c1.28,0,2.32,1.04,2.32,2.32s-1.04,2.32-2.32,2.32h-3.11c-1.26,0-2.28,1.02-2.28,2.28s1.02,2.28,2.28,2.28h1.67c1.28,0,2.32,1.04,2.32,2.32s-1.04,2.32-2.32,2.32h0Z"/>
      <path class="st0" d="M171.98,139.86c-.3,0-.61-.06-.9-.18-1.18-.5-1.73-1.86-1.23-3.04l7.64-18.03c.5-1.18,1.87-1.72,3.04-1.23,1.18.5,1.73,1.86,1.23,3.04l-7.64,18.03c-.38.89-1.23,1.42-2.14,1.42h0Z"/>
      <path class="st0" d="M183,139.86c-.3,0-.61-.06-.9-.18-1.18-.5-1.73-1.86-1.23-3.04l7.64-18.03c.5-1.18,1.87-1.72,3.04-1.23,1.18.5,1.73,1.86,1.23,3.04l-7.64,18.03c-.37.89-1.23,1.42-2.14,1.42h0Z"/>
      <circle class="st0" cx="161.03" cy="126.8" r="2"/>
      <path class="st0" d="M161.02,129.95c-1.74,0-3.16-1.41-3.16-3.16s1.41-3.16,3.16-3.16,3.16,1.42,3.16,3.16-1.41,3.16-3.16,3.16ZM161.02,125.95c-.46,0-.84.38-.84.84s.38.84.84.84.84-.38.84-.84-.37-.84-.84-.84Z"/>
      <circle class="st0" cx="161.03" cy="136.79" r="2"/>
      <path class="st0" d="M161.02,139.94c-1.74,0-3.16-1.42-3.16-3.16s1.41-3.16,3.16-3.16,3.16,1.41,3.16,3.16-1.41,3.16-3.16,3.16ZM161.02,135.94c-.46,0-.84.38-.84.84s.38.84.84.84.84-.38.84-.84-.37-.84-.84-.84Z"/>
      <path class="st0" d="M79.44,100.22l-4.59-.68c6.74-45.4,28.09-75.91,53.15-75.91s46.42,30.51,53.15,75.91l-4.59.68c-6.28-42.36-26.25-71.95-48.56-71.95s-42.28,29.59-48.56,71.95Z"/>
      <path class="st0" d="M128,232.37c-25.05,0-46.41-30.51-53.15-75.91l4.59-.68c6.28,42.36,26.25,71.95,48.56,71.95s42.28-29.59,48.56-71.95l4.59.68c-6.74,45.4-28.1,75.91-53.15,75.91Z"/>
      <path class="st0" d="M200.07,158.44H55.93c-7.12,0-12.9-5.79-12.9-12.9v-35.07c0-7.12,5.79-12.9,12.9-12.9h144.14c7.12,0,12.9,5.79,12.9,12.9v35.07c0,7.12-5.79,12.9-12.9,12.9ZM55.93,102.2c-4.56,0-8.27,3.71-8.27,8.27v35.07c0,4.56,3.71,8.27,8.27,8.27h144.14c4.56,0,8.27-3.71,8.27-8.27v-35.07c0-4.56-3.71-8.27-8.27-8.27,0,0-144.14,0-144.14,0Z"/>
    </g>
  </g>
</svg>