<?xml version="1.0" encoding="UTF-8"?>
<svg id="anki" xmlns="http://www.w3.org/2000/svg" version="1.1" viewBox="0 0 256 256">
  <!-- Generator: Adobe Illustrator 30.2.1, SVG Export Plug-In . SVG Version: 2.1.1 Build 1)  -->
  <defs>
    <style>
      .st0 {
        fill: #fff;
      }

      .st0, .st1 {
        fill-rule: evenodd;
      }

      .st2 {
        fill: #242938;
      }

      .st1 {
        fill: #0179ff;
      }
    </style>
  </defs>
  <rect class="st2" width="256" height="256" rx="60" ry="60"/>
  <g id="Layer_x5F_1">
    <g id="_2448169161120">
      <path class="st0" d="M126.62,114.48h-35.16v-57.22h-28.44v148.05h28.44v-62.39h51.02c5.44,0,10.26-2.33,14.09-5.73,1.6-1.42,2.4-2.31,3.7-4.23l1.51-2.45v74.8h28.61v-61.87c0-15.13-10.6-26.52-24.23-28.69-2.91-.46-13.76-.27-17.48-.27,1.38-1.2,7.32-1.58,14.43-11.42.44-.61.72-1.21,1.09-1.84,1.3-2.25,4.48-9.54,5.56-12.02l6.27-14.07c1.5-3.12,3.09-7.24,4.48-10,.34-.67.63-1.38.92-2.01.46-1.02,2.52-5.41,2.59-6.2h-31.71c-.59,1.12-1.03,2.36-1.61,3.56-.29.6-.56,1.26-.78,1.81l-21.39,48.75c-.46,1.03-1.26,3.44-1.9,3.44h0Z"/>
      <path class="st1" d="M196.25,67.25c0,8.9,4.48,12.3,4.48,13.27,0,1.27-.66,1.51-1.8,3.03-.64.85-1.35,1.61-1.82,2.49l4.47-.18c.64-.05.6-.15,1.38-.17l4.49-.17c.75-.04.63-.14,1.38-.17,5.1-.25,10.84-.87,14.35-4.26,6.5-6.28,6.89-19.75.94-25.68-2.47-2.47-6.17-4.44-9.78-4.52-.93-.02-1.08-.18-1.9-.18-1.63,0-5.39.61-6.9,1.21-1.89.75-3.64,1.76-5.04,3.23-2.24,2.35-4.26,7.55-4.26,12.11h0Z"/>
    </g>
  </g>
</svg>