<?xml version="1.0" encoding="UTF-8"?>
<svg id="Layer_1" xmlns="http://www.w3.org/2000/svg" version="1.1" xmlns:xlink="http://www.w3.org/1999/xlink" viewBox="0 0 256 256">
  <!-- Generator: Adobe Illustrator 30.2.1, SVG Export Plug-In . SVG Version: 2.1.1 Build 1)  -->
  <defs>
    <style>
      .st0, .st1 {
        fill: #fff;
      }

      .st2 {
        mask: url(#mask);
      }

      .st1 {
        fill-rule: evenodd;
      }

      .st3 {
        fill: #9046ff;
      }
    </style>
    <mask id="mask" x="58.16" y="43.38" width="139.51" height="169.64" maskUnits="userSpaceOnUse">
      <g id="mask0_1106_4856">
        <path class="st0" d="M197.67,43.4H58.16v169.61h139.51V43.4Z"/>
      </g>
    </mask>
  </defs>
  <rect class="st3" width="256" height="256" rx="60" ry="60"/>
  <path class="st1" d="M190.93,144.96c-.98-.24-1.79-.49-2.52-.81-.54-.24-.99-.53-1.39-.85-.26-.22-.38-.56-.34-.9.39-4.08-.04-7.68.35-11.72,1.62-16.4,11.94-11.21,21.2-13.89,5.32-1.5,10.63-4.44,12.58-10.24.32-.95.04-1.98-.62-2.73-6.06-6.9-12.78-12.99-20.08-18.21-24.46-17.41-56.25-24.64-85.44-20.41-1.11.16-1.69,1.39-1.08,2.32,3.7,5.75,8.57,10.46,14.17,13.93,1.02.63.61,1.99-.56,1.73-2.74-.61-6.27-1.81-9.58-4.15-.32-.23-.73-.28-1.09-.14-1.48.59-3.62,1.44-5.39,2.21-1.02.44-1.22,1.75-.39,2.48,14.66,12.71,35.99,14.64,52.7,4.47,1.02-.62,2.65.65,2.32,1.8-.53,1.83-1.14,4.36-1.79,7.79-4.14,20.95-16.08,19.33-30.86,14.05-29.54-10.7-46.29-1.56-61.19-19.66-1.03-1.26-2.85-1.69-4.09-.63-3.08,2.66-4.9,6.55-4.9,10.7,0,4.92,2.54,9.13,6.3,11.66.47.32,1.1.18,1.45-.26.92-1.16,1.67-1.93,2.6-2.42,1.02-.53,1.52.93.66,1.69-3.16,2.8-4.07,6.14-6.14,12.72-3.25,10.31-1.87,20.87-17.06,23.63-8.04.41-7.88,5.85-10.8,13.97-3.39,9.8-7.84,14.14-16.06,22.71-1.12,1.17-1.22,3.04.01,4.1,3.28,2.8,6.67,2.95,10.12,1.54,8.53-3.57,15.11-14.62,21.28-21.76,6.9-7.96,23.47-4.55,35.98-12.34,6.75-4.14,10.8-9.42,9.5-17.33-.21-1.27,1.25-2.04,1.78-.86,1,2.24,1.66,4.62,1.94,7.09.07.65.65,1.12,1.3,1.09,13.53-.76,31.03,14.16,47.39,18.2.99.25,1.7-.9,1.14-1.76-1.04-1.58-1.91-3.21-2.62-4.88-.72-1.74-1.27-3.42-1.66-5.04-.3-1.27,1.55-1.61,2.19-.47,4.19,7.56,12.58,14.66,24.24,15.5,3.98.32,8.36-.16,12.91-1.54,5.44-1.62,10.48-3.74,16.49-2.6,4.47.81,8.61,3.09,11.21,6.9,3.65,5.32,11.35,6.73,15.45,1.17.56-.76.6-1.77.24-2.63-9.03-21.17-31.98-22.63-41.84-25.17Z"/>
  <rect class="st3" x="0" y=".14" width="256" height="256" rx="128" ry="128"/>
  <g class="st2">
    <g>
      <path class="st0" d="M85.02,174.84c-17.54,38.85,19.82,48.6,47.39,25.86,8.11,25.49,38.48,6.47,49.4-13.3,24.01-43.57,14.31-87.99,11.82-97.16-17.07-62.49-102.4-62.6-117.09.32-3.45,11.02-3.5,23.53-5.41,36.52-.95,6.57-1.7,10.76-4.19,17.65-1.48,3.98-3.45,7.47-6.63,13.41-4.88,9.22-2.81,26.98,22.42,17.76l2.39-1.06h-.11Z"/>
      <path d="M135.71,117.34c-7,0-8.06-8.37-8.06-13.36,0-4.51.8-8.06,2.33-10.34,1.33-2.01,3.29-3.02,5.72-3.02s4.56,1.01,6.04,3.07c1.7,2.33,2.6,5.88,2.6,10.28,0,8.37-3.23,13.36-8.59,13.36h-.05Z"/>
      <path d="M164.53,117.34c-7,0-8.06-8.37-8.06-13.36,0-4.51.79-8.06,2.33-10.34,1.33-2.01,3.29-3.02,5.72-3.02s4.56,1.01,6.04,3.07c1.7,2.33,2.6,5.88,2.6,10.28,0,8.37-3.23,13.36-8.59,13.36h-.05Z"/>
    </g>
  </g>
</svg>