<?xml version="1.0" encoding="UTF-8"?>
<svg id="Layer_1" xmlns="http://www.w3.org/2000/svg" version="1.1" xmlns:xlink="http://www.w3.org/1999/xlink" viewBox="0 0 256 256">
  <!-- Generator: Adobe Illustrator 30.2.1, SVG Export Plug-In . SVG Version: 2.1.1 Build 1)  -->
  <defs>
    <style>
      .st0 {
        display: none;
        fill: #242938;
      }

      .st1 {
        fill: #222;
      }

      .st2 {
        fill: url(#linear-gradient);
      }
    </style>
    <linearGradient id="linear-gradient" x1="-483.21" y1="432.2" x2="-468.93" y2="432.2" gradientTransform="translate(5841 4450.01) scale(12 -10)" gradientUnits="userSpaceOnUse">
      <stop offset="0" stop-color="#e2167e"/>
      <stop offset="1" stop-color="#fe603c"/>
    </linearGradient>
  </defs>
  <path class="st0" d="M196,0H60C26.86,0,0,26.86,0,60v136c0,33.14,26.86,60,60,60h136c33.14,0,60-26.86,60-60V60c0-33.14-26.86-60-60-60Z"/>
  <path class="st1" d="M196,0H60C26.86,0,0,26.86,0,60v136c0,33.14,26.86,60,60,60h136c33.14,0,60-26.86,60-60V60c0-33.14-26.86-60-60-60Z"/>
  <path class="st2" d="M158.48,56.76c8.24,0,14.91,6.6,14.91,14.75v89.06c.12,2.84,2.46,5.07,5.3,5.05,2.84,0,5.17-2.22,5.29-5.05v-53.23c.04-8.11,6.65-14.64,14.75-14.6h0c8.11-.04,14.71,6.49,14.75,14.6h0v46.75c-.02,2.55-2.09,4.61-4.65,4.6-2.55.02-4.64-2.04-4.65-4.59h0v-46.74c-.02-3-2.46-5.42-5.46-5.4h0c-3-.02-5.44,2.4-5.46,5.4h0v53.23c-.04,8.01-6.58,14.48-14.59,14.43h0c-8.01.04-14.55-6.42-14.59-14.43h0v-89.05c-.12-3.01-2.6-5.38-5.61-5.36-3.01-.02-5.49,2.35-5.62,5.36v113.3c-.05,8.01-6.59,14.47-14.6,14.43-8.01.04-14.55-6.42-14.59-14.43h0v-13.78c0-2.54,2.08-4.6,4.65-4.6s4.65,2.06,4.65,4.6v13.78c0,1.87,1.01,3.6,2.65,4.55,1.64.93,3.66.93,5.3,0s2.65-2.66,2.65-4.55v-113.3c0-8.14,6.68-14.75,14.91-14.75v-.03h.01ZM118.05,56.76c8.24,0,14.91,6.6,14.91,14.75v82.09c0,2.55-2.09,4.61-4.64,4.6h0c-2.55.02-4.63-2.04-4.64-4.59h0v-82.09c-.02-3.09-2.54-5.57-5.62-5.56-3.09-.02-5.6,2.47-5.62,5.56v99.83c-.05,8.1-6.65,14.63-14.75,14.59-8.1.04-14.71-6.49-14.75-14.59v-64c-.02-3-2.46-5.42-5.46-5.4h0c-3-.02-5.44,2.4-5.46,5.4h0v27.07c-.04,8.11-6.65,14.64-14.75,14.6h0c-8.11.04-14.71-6.49-14.75-14.6h0v-9.82c0-2.54,2.08-4.6,4.65-4.6s4.65,2.07,4.65,4.6v9.82c0,2.98,2.44,5.39,5.46,5.39s5.46-2.42,5.46-5.39v-27.08c.05-8.1,6.65-14.63,14.75-14.59,8.1-.04,14.71,6.49,14.75,14.59v64c0,2.99,2.44,5.4,5.46,5.4s5.46-2.42,5.46-5.4v-99.83c0-8.14,6.68-14.75,14.91-14.75h-.02Z"/>
</svg>