<?xml version="1.0" encoding="UTF-8"?>
<svg id="Layer_1" xmlns="http://www.w3.org/2000/svg" baseProfile="tiny" version="1.2" viewBox="0 0 256 256">
  <!-- Generator: Adobe Illustrator 30.2.1, SVG Export Plug-In . SVG Version: 2.1.1 Build 1)  -->
  <path d="M196,0H60C26.86,0,0,26.86,0,60v136c0,33.14,26.86,60,60,60h136c33.14,0,60-26.86,60-60V60c0-33.14-26.86-60-60-60Z" fill="#dd2f28"/>
  <path d="M72.07,32.55c-19.14,3.42-34.53,17.58-39.39,36.2-1.75,6.73-1.87,10.66-1.67,62.82.12,47.9.16,49.01.96,52.72,4.42,19.93,18.58,34.14,38.71,38.83,2.63.6,5.97.72,27.49.84,22.28.16,24.59.12,25.19-.48s.64-8.28.64-95.33c0-64.53-.12-94.93-.4-95.49-.4-.72-1.08-.76-24.39-.72-18.94.04-24.62.16-27.13.6M108.08,128.04v80.6l-16.19-.2c-14.92-.16-16.51-.24-19.5-1-12.81-3.3-22.32-13.17-24.98-26.02-.88-4.02-.88-103-.04-106.94,2.39-11.18,10.14-20.45,20.61-24.62,5.25-2.11,7.68-2.35,24.7-2.39l15.4-.04v80.6h0Z" fill="#fff"/>
  <path d="M75.49,71.74c-2.51.48-6.33,2.39-8.36,4.18-4.18,3.62-6.24,8.75-5.93,14.8.16,3.14.36,3.98,1.63,6.53,1.87,3.86,4.69,6.69,8.55,8.59,2.67,1.31,3.34,1.47,6.81,1.59,3.14.12,4.26,0,6.37-.72,8.63-2.9,13.85-11.3,12.37-19.89-1.71-10.23-11.41-17.07-21.44-15.08M143.37,32.2c-.16.12-.28,43.24-.28,95.84,0,86.77.04,95.56.64,95.8,1.08.4,31.95.24,35.77-.16,16.15-1.83,30.39-11.66,38.16-26.26,1-1.87,2.31-5.01,2.98-6.96,2.51-7.48,2.43-5.49,2.43-62.66,0-45.63-.08-52.44-.64-55.34-3.94-20.73-19.74-36.36-40.5-39.94-2.79-.48-7.08-.6-20.93-.6-9.55-.01-17.5.11-17.62.27M185.86,118.85c6.2,1.63,11.3,6.37,13.37,12.41,1.31,3.74,1.27,9.23-.04,12.65-2.43,6.29-7.2,10.7-13.33,12.33-9.95,2.59-20.53-3.42-23.43-13.29-.88-3.02-.84-8.12.16-11.22,2.98-9.75,13.33-15.48,23.27-12.89" fill="#fff"/>
</svg>