<?xml version="1.0" encoding="UTF-8"?>
<svg id="Layer_1" xmlns="http://www.w3.org/2000/svg" baseProfile="tiny" version="1.2" viewBox="0 0 256 256">
  <!-- Generator: Adobe Illustrator 30.2.1, SVG Export Plug-In . SVG Version: 2.1.1 Build 1)  -->
  <path d="M196,0H60C26.86,0,0,26.86,0,60v136c0,33.14,26.86,60,60,60h136c33.14,0,60-26.86,60-60V60c0-33.14-26.86-60-60-60Z" fill="#242938"/>
  <circle cx="128" cy="128" r="100.5" fill="#fff"/>
  <path d="M162.17,87.8h16.08v80.4h-16.08v-80.4ZM109.91,87.8c-22.2,0-40.2,18-40.2,40.2s18,40.2,40.2,40.2,40.2-18,40.2-40.2-18-40.2-40.2-40.2ZM109.91,103.88c13.32,0,24.12,10.8,24.12,24.12s-10.8,24.12-24.12,24.12-24.12-10.8-24.12-24.12,10.8-24.12,24.12-24.12Z"/>
</svg>