<?xml version="1.0" encoding="UTF-8"?>
<svg id="Layer_1" xmlns="http://www.w3.org/2000/svg" baseProfile="tiny" version="1.2" viewBox="0 0 256 256">
  <!-- Generator: Adobe Illustrator 30.2.1, SVG Export Plug-In . SVG Version: 2.1.1 Build 1)  -->
  <path d="M196,0H60C26.86,0,0,26.86,0,60v136c0,33.14,26.86,60,60,60h136c33.14,0,60-26.86,60-60V60c0-33.14-26.86-60-60-60Z" fill="#242938"/>
  <path d="M181.15,46.07v49.65h18.54v70.65h-20.04v43.56l-48.04-42.29v41.95h-7.45v-42l-48.1,42.34v-44.14h-19.74v-70.64h19.69v-49.08l48.15,44.34v-43.04h7.44v44.31l49.56-45.61h0ZM131.6,107.82v49.97l40.6,35.73v-48.86l-40.6-36.85h0ZM124.1,107.27l-40.6,36.85v49.4l40.6-35.73v-50.51h0ZM179.65,159.02h12.59v-55.95h-54.27l41.68,37.82s0,18.13,0,18.13ZM118.33,102.49h-54.57v55.95h12.29v-17.59l42.28-38.37h0ZM83.45,62.98v32.16h34.92s-34.92-32.16-34.92-32.16ZM173.7,62.98l-34.92,32.16h34.92s0-32.16,0-32.16Z" fill="#22b8cd"/>
</svg>