<?xml version="1.0" encoding="UTF-8"?>
<svg id="Layer_1" xmlns="http://www.w3.org/2000/svg" baseProfile="tiny" version="1.2" viewBox="0 0 256 256">
  <!-- Generator: Adobe Illustrator 30.2.1, SVG Export Plug-In . SVG Version: 2.1.1 Build 1)  -->
  <path d="M196,0H60C26.86,0,0,26.86,0,60v136c0,33.14,26.86,60,60,60h136c33.14,0,60-26.86,60-60V60c0-33.14-26.86-60-60-60Z" fill="#f4f2ed"/>
  <path d="M136.44,80.61l-.13,128.54-34.46-11.22V46.86l43.97,11.64c28.12,7.55,45.35,22.28,45.1,48.02-.29,29.95-14.14,42.01-41.18,34.17v-59.12c0-7.13-13.31-7.55-13.31-.96" fill="#de0029" fill-rule="evenodd"/>
  <path d="M86.04,173.02l-16.23,5.47c-10.51,3.63-19.44-4.88-9.8-8.39l7.84-2.8-29.54-9.39c-9.09,3.09-17.65,9.68-17.06,18.9.54,9.39,21.99,11.64,38.51,14.27,15.39,2.5,29.41,1.13,42.14-3.38v-9.68l-15.85-5.01ZM136.61,209.14l30.12-10.51-30.41-9.68v19.44l.29.75Z" fill="#f3c202" fill-rule="evenodd"/>
  <path d="M216.67,180.98l.54-.13c13.14-4.63,18.77-11.06,17.36-17.06-2.25-10.1-18.36-15.56-43.14-17.36-17.77-1.25-35.29,2.67-52.36,8.55l-2.8,1,30.66,9.51,17.94-6.01c18.77-3.5,26.33,2.67,8.26,8.39l-8.97,3.09,32.5,10.01ZM101.85,136.47l-13.6,4.63,13.6,4.21v-8.84Z" fill="#326db3" fill-rule="evenodd"/>
  <path d="M166.69,198.63l49.98-17.65-32.5-10.1-47.85,16.4v1.67l30.37,9.68ZM101.85,167.68l-15.81,5.34,15.81,5.05v-10.39ZM136.31,175.94v-20.03l30.66,9.51-30.66,10.51ZM67.85,167.26l34-12.18v-9.8l-13.6-4.21-49.27,16.65c-.13,0-.42.13-.71.13l29.58,9.43Z" fill="#00aa9e" fill-rule="evenodd"/>
</svg>