<?xml version="1.0" encoding="UTF-8"?>
<svg id="Layer_1" xmlns="http://www.w3.org/2000/svg" version="1.1" xmlns:xlink="http://www.w3.org/1999/xlink" viewBox="0 0 256 256">
  <!-- Generator: Adobe Illustrator 30.2.1, SVG Export Plug-In . SVG Version: 2.1.1 Build 1)  -->
  <defs>
    <clipPath id="clippath">
      <rect x="28" y="28" width="200" height="200" fill="none"/>
    </clipPath>
  </defs>
  <rect width="256" height="256" rx="60" ry="60" fill="#f4f2ed"/>
  <g clip-path="url(#clippath)">
    <g>
      <path d="M220.16,174.47c-10.67,5.57-65.96,28.3-77.73,34.43-11.77,6.13-18.31,6.08-27.61,1.63-9.3-4.44-68.13-28.21-78.74-33.27-5.3-2.54-8.08-4.67-8.08-6.68v-20.22s76.6-16.68,88.97-21.11c12.37-4.44,16.65-4.6,27.18-.74,10.53,3.85,73.45,15.21,83.85,19.02v19.94c0,2-2.4,4.24-7.83,7.02h-.01Z" fill="#a41e11"/>
      <path d="M220.16,154.25c-10.67,5.57-65.96,28.3-77.73,34.43-11.77,6.13-18.31,6.08-27.61,1.63-9.3-4.44-68.13-28.21-78.74-33.27-10.6-5.07-10.82-8.55-.41-12.63l81.29-31.47c12.36-4.43,16.65-4.6,27.18-.74,10.53,3.85,65.48,25.73,75.87,29.6,10.39,3.87,10.8,6.95.13,12.51v-.05Z" fill="#d82c20"/>
      <path d="M220.16,141.5c-10.67,5.57-65.96,28.3-77.73,34.43-11.77,6.13-18.31,6.08-27.61,1.63-9.3-4.44-68.13-28.21-78.74-33.27-5.3-2.54-8.08-4.67-8.08-6.68v-20.22s76.6-16.67,88.97-21.11c12.37-4.44,16.65-4.6,27.18-.74s73.45,15.21,83.85,19.02v19.94c0,2-2.4,4.24-7.83,7.02h-.01Z" fill="#a41e11"/>
      <path d="M220.16,121.28c-10.67,5.57-65.96,28.3-77.73,34.43-11.77,6.13-18.31,6.08-27.61,1.63-9.3-4.44-68.13-28.21-78.74-33.28-10.6-5.07-10.82-8.55-.41-12.63l81.29-31.47c12.36-4.44,16.65-4.6,27.18-.74,10.53,3.85,65.48,25.73,75.88,29.53,10.4,3.8,10.8,6.95.13,12.51h0Z" fill="#d82c20"/>
      <path d="M220.16,107.31c-10.67,5.57-65.96,28.3-77.73,34.44-11.77,6.14-18.31,6.08-27.61,1.63-9.3-4.44-68.13-28.21-78.74-33.28-5.3-2.53-8.08-4.67-8.08-6.68v-20.23s76.6-16.67,88.97-21.11c12.37-4.44,16.65-4.6,27.18-.74s73.45,15.21,83.85,19.02v19.94c0,2-2.4,4.24-7.83,7.02h-.01Z" fill="#a41e11"/>
      <path d="M220.16,87.09c-10.67,5.57-65.96,28.3-77.73,34.43-11.77,6.13-18.31,6.08-27.61,1.63-9.3-4.44-68.13-28.21-78.74-33.28-10.6-5.07-10.82-8.55-.41-12.63l81.29-31.47c12.36-4.44,16.65-4.6,27.18-.74,10.53,3.85,65.48,25.73,75.88,29.53,10.4,3.8,10.8,6.95.13,12.51h0Z" fill="#d82c20"/>
      <path d="M133,78.76l-6.27-10.42-20.01-1.8,14.93-5.39-4.48-8.27,13.98,5.46,13.18-4.32-3.56,8.55,13.44,5.04-17.33,1.8-3.88,9.35ZM99.61,99.5l46.34-7.12-14,20.53-32.34-13.41Z" fill="#fff"/>
      <path d="M87.12,92.02c13.68,0,24.77-4.3,24.77-9.6s-11.09-9.6-24.77-9.6-24.77,4.3-24.77,9.6,11.09,9.6,24.77,9.6Z" fill="#fff"/>
      <path d="M202.11,81.01l-27.41,10.83-.02-21.67,27.43,10.84Z" fill="#7a0c00"/>
      <path d="M174.71,91.84l-2.97,1.17-27.39-10.83,30.34-12,.02,21.66Z" fill="#ad2115"/>
    </g>
  </g>
</svg>