<?xml version="1.0" encoding="UTF-8"?>
<svg id="Layer_1" xmlns="http://www.w3.org/2000/svg" version="1.1" xmlns:xlink="http://www.w3.org/1999/xlink" viewBox="0 0 256 256">
  <!-- Generator: Adobe Illustrator 30.2.1, SVG Export Plug-In . SVG Version: 2.1.1 Build 1)  -->
  <defs>
    <style>
      .st0 {
        fill: none;
      }

      .st1 {
        display: none;
        fill: #fff;
      }

      .st2 {
        fill: #231f20;
      }

      .st3 {
        fill: #f4f2ed;
      }

      .st4 {
        clip-path: url(#clippath);
      }
    </style>
    <clipPath id="clippath">
      <rect class="st0" width="256" height="256"/>
    </clipPath>
  </defs>
  <g class="st4">
    <path class="st3" d="M196,0H60C26.86,0,0,26.86,0,60v136c0,33.14,26.86,60,60,60h136c33.14,0,60-26.86,60-60V60c0-33.14-26.86-60-60-60Z"/>
  </g>
  <path class="st1" d="M178.75,102c-2.28,10.5-9.96,45.45-9.96,45.45h15.42c.92-4.31,1.64-8.27,2.69-12.65,1.86-7.76,3.94-10.84,9.45-10.84,2.43,0,4.95.83,4.95,4.15,0,1.51-3.47,16.33-4.07,19.34h15.34s4.76-23.08,4.8-23.34c.16-.78.51-3.05.51-3.05,0-5.51-7.18-8.11-10.91-8.22-2.7-.08-.67-.05-3.42,0-4.42.08-10.29,2.53-12.87,5.16l-.29.22.15-.36,3.49-15.56c0-.11-.07-.21-.15-.29h-15.13ZM105.73,112.4c-1.51-.02-4-.02-8,.07-7.99.19-19.93,2.65-19.93,14.11,0,6.48,6.02,7.04,11.34,7.56,4.17.41,8.3.9,12.36,1.31,1.17.11,2.33.37,2.33,1.67,0,2.21-1.82,2.9-4.36,3.13-2.54.22-3.13,0-3.13,0-1.6,0-4.35-.97-4-3.27h-18.11v2.69c0,8.66,13.99,8.7,16.58,9.02h4.51l6.91-.22c9.22-.61,19.21-3.37,19.64-14.4.3-7.61-9.42-7.39-13.67-7.86h-1.16c-.22,0-6.82-.67-10.11-1.02-.5-.06-2.76-.39-2.76-1.75,0-2.69,4.95-2.62,6.04-2.62,1.74,0,5.52-.07,5.38,2.91h17.09c.03-.63.29-1.21.29-1.89,0-7.67-9.84-9.12-15.2-9.38,0,0-.52-.05-2.04-.07h0ZM151.69,112.4c-.68-.02-1.6,0-5.6.07-8.01.16-20,2.72-20,14.18,0,6.48,6.02,7.04,11.34,7.56,4.17.41,8.3.9,12.36,1.31,1.17.11,2.33.37,2.33,1.67,0,2.21-2.27,2.99-4.36,3.13-2.1.13-3.13,0-3.13,0-1.61,0-4.35-.9-4-3.2h-18.11v2.69c-.01,8.19,13.94,8.73,16.58,8.87l4.51.15,6.91-.22c9.22-.61,19.17-3.38,19.64-14.4.31-7.27-9.08-7.17-13.53-7.78l-1.31-.15c-.22,0-6.82-.6-10.11-.95-.5-.05-2.69-.46-2.69-1.82,0-2.69,4.88-2.62,5.96-2.62,1.75,0,5.52-.07,5.38,2.91h17.09c.03-.63.29-1.21.29-1.89,0-7.67-9.89-9.15-15.2-9.31-3.25-.1-3.69-.2-4.36-.22h0v.02ZM64.66,101.05c0-2.8-1.99-4.95-4.95-4.95-2.78,0-5.02,2.14-5.02,4.95,0,2.63,2.13,5.02,4.95,5.02,2.66,0,5.02-2.09,5.02-5.02ZM78.26,89.34c0-2.13-1.4-4.87-4.36-4.87-2.7,0-4.07,2.37-4.07,4.51s1.46,5.09,4.36,5.09c2.7,0,4.07-2.66,4.07-4.73h0ZM66.1,168.55c-2.47,0-5.74,3.23-5.74,5.67,0,1.24.58,1.89,1.93,1.89,1.76,0,4.08-1.49,5.17-3.71.21-.43.37-1.17.37-1.31v-1.24c0-1.03-1.01-1.31-1.74-1.31h0ZM55.57,162.5c-2.74,0-6.55,2.85-6.55,6.04,0,1.58.98,2.33,2.4,2.33,2.63,0,6.76-2.76,6.76-6.11,0-1.65-1.16-2.26-2.62-2.26h0ZM48,123.45c2.59,0,6.18-1.79,6.18-5.45,0-2.77-2.28-4.51-4.8-4.51-2.74,0-6.26,1.9-6.26,5.45,0,2.74,2.21,4.51,4.87,4.51h.01ZM51.13,153.34c0-2.14-1.58-2.98-3.35-2.98-2.58,0-7.05,2.48-7.05,6.04,0,2.01,1.37,2.91,3.27,2.91,2.44,0,7.13-2.21,7.13-5.96h0ZM49.39,136.77c0-2.55-2.08-3.71-4.29-3.71-.14,0-.24-.04-.8,0-3.2.27-6.18,3.02-6.18,5.82,0,2.61,2.38,3.71,4.44,3.71,2.66,0,6.84-2.04,6.84-5.82h0ZM77.68,169.49c-2.32,0-5.02,3.1-5.02,5.24,0,.32,0,.93.58,1.31.6.4,1.68.43,2.98-.44,1.75-1.16,2.91-3.23,2.91-4.58,0-.74-.48-1.53-1.45-1.53h0ZM110.62,86.15c-1.95,0-2.62,3.02-2.62,4s.34,3.13,2.04,3.13c2,0,2.62-3.02,2.62-4,0-.82-.44-3.13-2.03-3.13h-.01ZM116.94,94.15c-1.8,0-2.47,2.95-2.47,3.85,0,.75.29,2.55,1.67,2.55,1.75,0,2.4-2.88,2.4-3.78,0-.6-.26-2.62-1.6-2.62ZM101.09,80.69c-2.26,0-2.98,2.83-2.98,4.14,0,.87.53,3.95,2.69,3.93s2.98-2.83,2.98-4.22c0-1.08-.52-3.86-2.69-3.86h0ZM98.04,160.55c-2.05,0-3.49,3.14-3.49,4.36,0,.64.16,1.31,1.09,1.31,2.03,0,3.49-3.08,3.49-4.36,0-.6-.22-1.31-1.09-1.31h0ZM88.44,79.53c-2.47,0-3.42,2.94-3.42,4.51,0,1.65,1.22,4.51,3.64,4.51s3.39-2.93,3.34-4.44c-.06-1.92-.87-4.58-3.56-4.58h0ZM88.44,166.44c-2.25,0-4.14,3.22-4.14,4.87,0,.83.38,1.31,1.24,1.31,2.03,0,4.15-3.11,4.15-4.73,0-.71-.15-1.45-1.24-1.45h-.01Z"/>
  <path class="st2" d="M178.75,102c-2.28,10.5-9.96,45.45-9.96,45.45h15.42c.92-4.31,1.64-8.27,2.69-12.65,1.86-7.76,3.94-10.84,9.45-10.84,2.43,0,4.95.83,4.95,4.15,0,1.51-3.47,16.33-4.07,19.34h15.34s4.76-23.08,4.8-23.34c.16-.78.51-3.05.51-3.05,0-5.51-7.18-8.11-10.91-8.22-2.7-.08-.67-.05-3.42,0-4.42.08-10.29,2.53-12.87,5.16l-.29.22.15-.36,3.49-15.56c0-.11-.07-.21-.15-.29h-15.13ZM105.73,112.4c-1.51-.02-4-.02-8,.07-7.99.19-19.93,2.65-19.93,14.11,0,6.48,6.02,7.04,11.34,7.56,4.17.41,8.3.9,12.36,1.31,1.17.11,2.33.37,2.33,1.67,0,2.21-1.82,2.9-4.36,3.13-2.54.22-3.13,0-3.13,0-1.6,0-4.35-.97-4-3.27h-18.11v2.69c0,8.66,13.99,8.7,16.58,9.02h4.51l6.91-.22c9.22-.61,19.21-3.37,19.64-14.4.3-7.61-9.42-7.39-13.67-7.86h-1.16c-.22,0-6.82-.67-10.11-1.02-.5-.06-2.76-.39-2.76-1.75,0-2.69,4.95-2.62,6.04-2.62,1.74,0,5.52-.07,5.38,2.91h17.09c.03-.63.29-1.21.29-1.89,0-7.67-9.84-9.12-15.2-9.38,0,0-.52-.05-2.04-.07h0ZM151.69,112.4c-.68-.02-1.6,0-5.6.07-8.01.16-20,2.72-20,14.18,0,6.48,6.02,7.04,11.34,7.56,4.17.41,8.3.9,12.36,1.31,1.17.11,2.33.37,2.33,1.67,0,2.21-2.27,2.99-4.36,3.13-2.1.13-3.13,0-3.13,0-1.61,0-4.35-.9-4-3.2h-18.11v2.69c-.01,8.19,13.94,8.73,16.58,8.87l4.51.15,6.91-.22c9.22-.61,19.17-3.38,19.64-14.4.31-7.27-9.08-7.17-13.53-7.78l-1.31-.15c-.22,0-6.82-.6-10.11-.95-.5-.05-2.69-.46-2.69-1.82,0-2.69,4.88-2.62,5.96-2.62,1.75,0,5.52-.07,5.38,2.91h17.09c.03-.63.29-1.21.29-1.89,0-7.67-9.89-9.15-15.2-9.31-3.25-.1-3.69-.2-4.36-.22h0v.02ZM64.66,101.05c0-2.8-1.99-4.95-4.95-4.95-2.78,0-5.02,2.14-5.02,4.95,0,2.63,2.13,5.02,4.95,5.02,2.66,0,5.02-2.09,5.02-5.02ZM78.26,89.34c0-2.13-1.4-4.87-4.36-4.87-2.7,0-4.07,2.37-4.07,4.51s1.46,5.09,4.36,5.09c2.7,0,4.07-2.66,4.07-4.73h0ZM66.1,168.55c-2.47,0-5.74,3.23-5.74,5.67,0,1.24.58,1.89,1.93,1.89,1.76,0,4.08-1.49,5.17-3.71.21-.43.37-1.17.37-1.31v-1.24c0-1.03-1.01-1.31-1.74-1.31h0ZM55.57,162.5c-2.74,0-6.55,2.85-6.55,6.04,0,1.58.98,2.33,2.4,2.33,2.63,0,6.76-2.76,6.76-6.11,0-1.65-1.16-2.26-2.62-2.26h0ZM48,123.45c2.59,0,6.18-1.79,6.18-5.45,0-2.77-2.28-4.51-4.8-4.51-2.74,0-6.26,1.9-6.26,5.45,0,2.74,2.21,4.51,4.87,4.51h.01ZM51.13,153.34c0-2.14-1.58-2.98-3.35-2.98-2.58,0-7.05,2.48-7.05,6.04,0,2.01,1.37,2.91,3.27,2.91,2.44,0,7.13-2.21,7.13-5.96h0ZM49.39,136.77c0-2.55-2.08-3.71-4.29-3.71-.14,0-.24-.04-.8,0-3.2.27-6.18,3.02-6.18,5.82,0,2.61,2.38,3.71,4.44,3.71,2.66,0,6.84-2.04,6.84-5.82h0ZM77.68,169.49c-2.32,0-5.02,3.1-5.02,5.24,0,.32,0,.93.58,1.31.6.4,1.68.43,2.98-.44,1.75-1.16,2.91-3.23,2.91-4.58,0-.74-.48-1.53-1.45-1.53h0ZM110.62,86.15c-1.95,0-2.62,3.02-2.62,4s.34,3.13,2.04,3.13c2,0,2.62-3.02,2.62-4,0-.82-.44-3.13-2.03-3.13h-.01ZM116.94,94.15c-1.8,0-2.47,2.95-2.47,3.85,0,.75.29,2.55,1.67,2.55,1.75,0,2.4-2.88,2.4-3.78,0-.6-.26-2.62-1.6-2.62ZM101.09,80.69c-2.26,0-2.98,2.83-2.98,4.14,0,.87.53,3.95,2.69,3.93s2.98-2.83,2.98-4.22c0-1.08-.52-3.86-2.69-3.86h0ZM98.04,160.55c-2.05,0-3.49,3.14-3.49,4.36,0,.64.16,1.31,1.09,1.31,2.03,0,3.49-3.08,3.49-4.36,0-.6-.22-1.31-1.09-1.31h0ZM88.44,79.53c-2.47,0-3.42,2.94-3.42,4.51,0,1.65,1.22,4.51,3.64,4.51s3.39-2.93,3.34-4.44c-.06-1.92-.87-4.58-3.56-4.58h0ZM88.44,166.44c-2.25,0-4.14,3.22-4.14,4.87,0,.83.38,1.31,1.24,1.31,2.03,0,4.15-3.11,4.15-4.73,0-.71-.15-1.45-1.24-1.45h-.01Z"/>
</svg>