<?xml version="1.0" encoding="UTF-8"?>
<svg id="Layer_1" xmlns="http://www.w3.org/2000/svg" version="1.1" viewBox="0 0 256 256">
  <!-- Generator: Adobe Illustrator 30.2.1, SVG Export Plug-In . SVG Version: 2.1.1 Build 1)  -->
  <defs>
    <style>
      .st0 {
        fill: #809cc9;
      }

      .st1 {
        fill: #fff;
      }

      .st2 {
        fill: #999;
      }

      .st3 {
        fill: #f4f2ed;
      }
    </style>
  </defs>
  <rect class="st3" width="256" height="256" rx="60" ry="60"/>
  <path class="st0" d="M34.87,51.08v49.13c25.17-10.53,58.84-21.13,101.12-31.81,25.99-6.59,52.18-12.36,78.53-17.32H34.87ZM155.22,74.45c-22.18,5.6-40.02,11.29-53.53,17.07-13.53,5.66-19.85,10.26-18.96,13.8.78,3.12,6.44,4.54,17.01,4.23,5.42-.1,14.24-.69,26.46-1.77,12.22-1.08,27.99-2.65,47.3-4.7,19.12-1.99,34.92-3.35,47.63-4.13v-37.33c-24.54,3.67-46.54,7.94-65.91,12.84M144.11,125.13c-9.6.72-21.52,1.83-35.77,3.33-22.11,2.37-40.47,4.16-55.09,5.38-6.99.58-13.08,1.01-18.37,1.32v39.81c29-4.28,55.23-9.36,78.62-15.26,22.99-5.81,40.7-11.44,53.14-16.9,12.43-5.47,18.16-10.07,17.22-13.83-.81-3.25-6.56-4.91-17.21-4.99-5.45.06-12.96.44-22.54,1.15M221.13,138.01c-25.49,10.05-57.13,19.84-94.91,29.38-35.21,8.89-65.63,15.28-91.34,19.21v.35h186.25v-48.94Z"/>
  <path class="st1" d="M42.89,146.31c.49,0,.91.18,1.26.55.35.33.54.78.54,1.26,0,.52-.18.95-.54,1.31-.54.53-.78.53-1.28.53-1,.01-1.82-.79-1.83-1.78,0-.02,0-.03,0-.05,0-1,.81-1.81,1.81-1.81.02,0,.03,0,.05,0h0ZM44.15,158.59c.35.34.55.81.54,1.3,0,1.01-.83,1.82-1.84,1.81-.24,0-.48-.05-.7-.15-.22-.08-.41-.21-.57-.38-.17-.16-.31-.36-.39-.59-.1-.23-.15-.47-.15-.72,0-1.01.83-1.83,1.85-1.82,0,0,0,0,.01,0,.49,0,.91.18,1.26.55M49.2,146.31c.49,0,.91.18,1.26.55.35.32.55.78.54,1.26,0,.52-.18.95-.54,1.31-.54.53-.78.53-1.28.53-.99.02-1.81-.77-1.83-1.76,0-.02,0-.05,0-.07,0-.5.17-.93.52-1.28.36-.35.83-.54,1.33-.53M50.45,158.59c.35.34.55.81.54,1.3,0,1.01-.83,1.82-1.84,1.81-.24,0-.48-.05-.7-.15-.22-.09-.42-.22-.59-.38-.16-.17-.29-.37-.38-.59-.09-.23-.14-.47-.15-.72,0-.5.17-.93.53-1.28.35-.35.83-.55,1.33-.54.49,0,.91.18,1.26.55"/>
  <path class="st0" d="M45.27,203.03c-.39.58-.95,1.05-1.68,1.39-.84.35-1.73.52-2.64.5-1.21,0-2.21-.23-3.01-.69-.56-.32-1.03-.78-1.37-1.33-.33-.47-.51-1.04-.53-1.61,0-.29.11-.57.31-.78.22-.21.5-.32.8-.32.25,0,.49.08.67.26.21.21.37.46.47.75.16.39.33.72.51.99.18.26.44.47.77.65.5.26.77.26,1.31.26.64.03,1.28-.15,1.81-.51.44-.29.7-.77.7-1.3.01-.37-.12-.73-.38-1-.27-.27-.6-.47-.96-.59-.52-.16-1.05-.31-1.59-.43-.77-.17-1.52-.42-2.24-.74-.56-.25-1.05-.64-1.42-1.13-.37-.52-.55-1.15-.53-1.79,0-.69.18-1.29.55-1.82.41-.55.97-.97,1.61-1.21.7-.29,1.53-.43,2.48-.43.75,0,1.4.09,1.96.28.83.28,1.01.44,1.38.75.33.27.6.61.79.99.16.31.25.65.26,1.01,0,.3-.12.58-.32.8-.19.23-.48.36-.78.36-.24.02-.47-.06-.65-.22-.19-.21-.36-.44-.48-.7-.2-.42-.47-.79-.81-1.1-.31-.26-.82-.39-1.52-.39-.55-.02-1.1.13-1.56.43-.39.28-.59.62-.59,1.02,0,.25.06.46.19.64.15.2.34.36.56.47.23.13.47.23.71.3.36.1.65.18,1.2.32.7.17,1.33.35,1.89.55.85.29,1.04.43,1.43.71s.71.63.93,1.06c.23.5.34,1.04.33,1.59,0,.75-.19,1.42-.57,2.02M55.77,193.66c0-.5.12-.88.35-1.14.23-.25.55-.39.89-.38.39,0,.7.12.93.38.35.38.34.64.34,1.14v6.09c0,.7.08,1.27.23,1.73.15.47.42.83.81,1.09.59.39.94.38,1.64.38.98,0,1.66-.26,2.06-.78.41-.52.61-1.31.61-2.37v-6.14c0-.51.11-.89.33-1.14.23-.25.53-.38.9-.38.56,0,.68.12.92.38.23.24.35.62.35,1.14v5.95c0,.97-.09,1.77-.28,2.42-.2.65-.57,1.24-1.07,1.7-.45.41-.98.72-1.56.9-.68.2-1.38.29-2.08.28-.95,0-1.77-.1-2.46-.31-1.03-.31-1.23-.52-1.67-.95-.45-.46-.77-1.03-.94-1.65-.22-.78-.32-1.59-.31-2.41v-5.94ZM78.1,204.71c-.54,0-.93-.12-1.16-.36-.35-.36-.35-.64-.35-1.18v-9.27c0-.55.12-.94.35-1.17.25-.24.63-.36,1.16-.36h4c.6,0,1.1.03,1.54.1.43.08.82.21,1.16.42.29.18.55.41.77.67.23.26.4.55.51.88.12.32.19.67.18,1.01,0,1.25-.62,2.14-1.85,2.72,1.62.52,2.43,1.53,2.43,3.02,0,.7-.17,1.32-.52,1.87-.34.55-.84.98-1.43,1.23-.42.16-.86.27-1.3.33-.57.06-1.14.1-1.71.1h-3.78ZM79.09,194.23v3.2h2.3c.62,0,1.1-.06,1.44-.17.34-.12.62-.37.78-.68.14-.24.21-.52.21-.8,0-.62-.22-1.04-.66-1.25-.66-.31-1.13-.31-2.04-.31h-2.03ZM79.09,199.21v3.63h2.69c1.7,0,2.54-.61,2.54-1.84,0-.62-.22-1.08-.66-1.37-.44-.28-1.09-.42-1.96-.42h-2.61Z"/>
  <path class="st2" d="M101.39,202.07l2.8-8.34c.16-.44.27-.74.33-.9.08-.18.21-.34.37-.47.2-.15.44-.22.68-.21.42,0,.82.22,1.03.58.1.16.16.35.16.54,0,.12-.02.26-.05.39-.03.15-.08.29-.13.43l-.15.43-2.98,8.07-.32.88c-.1.26-.23.5-.38.73-.14.21-.33.38-.56.52-.35.21-.51.19-.84.19-.57.03-1.11-.24-1.42-.72-.14-.21-.27-.45-.38-.73-.16-.42-.21-.57-.32-.88l-2.93-8.01c-.06-.15-.11-.29-.16-.43-.11-.28-.18-.57-.19-.87,0-.3.13-.58.35-.78.22-.24.53-.37.86-.35.43,0,.74.12.92.39.17.26.35.68.54,1.25l2.79,8.28ZM118.92,194.28v3.04h5.2c.38,0,.66.09.85.26.19.17.28.4.28.68,0,.42-.1.5-.28.69-.19.17-.47.26-.85.27h-5.2v3.53h5.83c.39,0,.7.09.89.27s.29.42.29.72c.01.26-.1.52-.29.7-.19.18-.5.28-.89.28h-6.79c-.55,0-.94-.12-1.18-.36-.24-.25-.36-.64-.36-1.18v-9.27c0-.3.05-.6.16-.88.1-.22.28-.4.5-.5.28-.11.58-.16.88-.15h6.6c.4,0,.7.09.89.26.29.26.29.4.29.69.01.27-.1.52-.29.7-.19.18-.49.27-.89.27h-5.63ZM138.17,199.42v3.97c0,.53-.12.91-.36,1.16-.23.25-.56.38-.9.36-.39,0-.7-.13-.93-.39-.23-.33-.34-.73-.32-1.14v-9.5c0-.54.12-.93.35-1.17.24-.24.64-.36,1.18-.36h4.07c.56,0,1.04.02,1.44.06.79.09,1.53.44,2.1.99.29.31.52.66.67,1.05.16.41.24.84.23,1.28,0,.92-.26,1.66-.77,2.21-.52.55-1.31.94-2.37,1.16.44.24.87.59,1.27,1.05.75.86,1.37,1.83,1.83,2.87.13.28.22.57.26.87,0,.17-.05.34-.15.49-.11.16-.26.29-.43.38-.2.09-.41.13-.62.14-.28,0-.51-.06-.71-.19-.29-.19-.35-.31-.49-.5-.2-.29-.39-.59-.56-.89l-1-1.67c-.28-.49-.6-.96-.97-1.4-.23-.29-.53-.51-.87-.66-.35-.14-.73-.2-1.1-.18h-.87ZM138.17,194.23v3.42h2.24c.6,0,1.1-.06,1.51-.16.36-.08.69-.27.94-.54.23-.3.34-.66.32-1.04,0-.32-.08-.64-.26-.92-.18-.26-.44-.46-.74-.58-.28-.12-.85-.19-1.72-.19h-2.3ZM164.65,203.03c-.42.62-1,1.1-1.68,1.39-.83.34-1.73.51-2.63.5-1.22,0-2.22-.23-3.02-.69-.56-.33-1.02-.78-1.37-1.33-.53-.83-.52-1.09-.52-1.61,0-.6.47-1.09,1.07-1.1.02,0,.03,0,.05,0,.25,0,.49.09.67.26.2.22.36.47.47.75.16.39.32.72.5.99.19.26.46.47.78.65.49.26.77.26,1.31.26.64.03,1.28-.15,1.81-.51.44-.29.7-.77.7-1.3.01-.37-.13-.73-.38-1-.27-.27-.61-.47-.98-.59-.52-.17-1.05-.31-1.59-.43-.76-.17-1.51-.42-2.22-.74-.57-.24-1.06-.64-1.43-1.13-.36-.52-.54-1.15-.52-1.79,0-.65.19-1.29.56-1.82.4-.55.96-.97,1.6-1.21.71-.29,1.53-.43,2.48-.43.76,0,1.4.1,1.96.28.56.19,1.01.43,1.37.75.37.32.64.65.81.99.26.51.24.67.24,1.01,0,.3-.11.58-.31.8-.19.23-.48.36-.78.36-.24.01-.48-.06-.66-.22-.19-.21-.36-.44-.48-.7-.18-.42-.46-.8-.81-1.1-.32-.26-.82-.39-1.51-.39-.55-.02-1.1.13-1.57.43-.4.28-.6.62-.6,1.02,0,.25.07.46.21.64.14.2.33.36.55.47.24.13.48.23.72.3.23.08.63.18,1.2.32.7.17,1.32.35,1.88.55.84.29,1.04.43,1.44.71.39.28.7.63.92,1.06.23.5.35,1.04.33,1.59.01.71-.19,1.42-.57,2.02M175.23,193.66c0-.5.12-.88.35-1.14.35-.38.52-.38.89-.38.38,0,.69.12.92.38.23.24.35.62.35,1.14v9.73c0,.51-.12.89-.35,1.15-.35.38-.54.38-.92.38-.34,0-.66-.13-.89-.38-.23-.26-.34-.64-.34-1.15v-9.73ZM197.01,192.93c.92.51,1.6,1.26,2.08,2.21s.71,2.08.71,3.38c0,.95-.13,1.82-.39,2.6-.39,1.17-.65,1.47-1.16,2.03-.52.58-1.17,1.03-1.89,1.32-.76.31-1.62.46-2.58.45-1.45,0-1.83-.16-2.59-.47-.73-.3-1.38-.75-1.92-1.32-.53-.59-.92-1.3-1.15-2.06-.27-.83-.4-1.7-.39-2.58,0-.95.13-1.82.4-2.62.4-1.19.66-1.47,1.19-2.03.51-.55,1.14-.98,1.88-1.27,1.11-.44,1.58-.44,2.52-.44,1.28,0,2.38.26,3.3.78M196.83,196.13c-.26-.61-.69-1.14-1.25-1.5-.56-.34-1.21-.52-1.87-.51-.47,0-.94.09-1.38.28-.42.19-.79.48-1.09.83-.33.41-.58.88-.72,1.38-.18.56-.27,1.19-.27,1.89s.09,1.35.27,1.91c.15.52.4,1,.75,1.42.61.73,1.53,1.15,2.48,1.13.62,0,1.22-.17,1.76-.48.54-.33.96-.82,1.28-1.49.47-1,.48-1.51.48-2.48,0-.91-.15-1.7-.44-2.37h0ZM217.8,200.94v-7.36c0-.47.1-.83.31-1.07.31-.36.48-.35.82-.35.36,0,.65.11.85.35.31.36.31.6.31,1.07v9.72c0,1.09-.45,1.63-1.35,1.63-.2,0-.41-.03-.6-.1-.19-.07-.36-.17-.51-.31-.16-.15-.3-.31-.43-.49-.14-.19-.28-.39-.4-.59l-4.72-7.2v7.24c0,.47-.11.83-.33,1.06-.21.24-.52.38-.84.37-.32.01-.63-.12-.84-.37-.22-.24-.33-.6-.33-1.06v-9.53c0-.4.04-.72.13-.95.24-.52.77-.86,1.35-.85.22,0,.41.04.57.11.16.06.31.16.42.29.14.15.26.31.38.47.13.19.26.4.39.62l4.83,7.28Z"/>
</svg>