<?xml version="1.0" encoding="UTF-8"?>
<svg id="Layer_1" xmlns="http://www.w3.org/2000/svg" baseProfile="tiny" version="1.2" viewBox="0 0 256 256">
  <!-- Generator: Adobe Illustrator 30.2.1, SVG Export Plug-In . SVG Version: 2.1.1 Build 1)  -->
  <path d="M196,0H60C26.86,0,0,26.86,0,60v136c0,33.14,26.86,60,60,60h136c33.14,0,60-26.86,60-60V60c0-33.14-26.86-60-60-60Z" fill="#242938"/>
  <path d="M118.42,223.98c-14.81-1.41-29.82-6.74-42.72-15.18-10.81-7.06-13.25-9.95-13.25-15.75,0-11.62,12.78-32,34.61-55.21,12.41-13.19,29.69-28.64,31.55-28.23,3.64.82,32.68,29.2,43.56,42.53,17.21,21.15,25.13,38.44,21.1,46.15-3.06,5.86-22,17.32-35.92,21.7-11.47,3.64-26.54,5.18-38.94,3.98M47.87,180.97c-8.97-13.78-13.5-27.38-15.71-47-.73-6.49-.47-10.19,1.64-23.51,2.64-16.59,12.05-35.77,23.39-47.59,4.84-5.03,5.26-5.16,11.15-3.17,7.15,2.42,14.77,7.68,26.6,18.41l6.92,6.25-3.77,4.65c-17.52,21.54-35.99,52.07-42.95,70.94-3.79,10.26-5.31,20.57-3.68,24.85,1.09,2.89.09,1.82-3.6-3.84M205.41,183.31c.88-4.32-.23-12.28-2.87-20.31-5.67-17.38-24.7-49.74-42.17-71.73l-5.5-6.92,5.95-5.48c7.77-7.15,13.16-11.43,18.99-15.05,4.6-2.87,11.15-5.39,13.98-5.39,1.73,0,7.86,6.36,12.8,13.31,7.66,10.74,13.29,23.8,16.14,37.37,1.84,8.78,1.99,27.55.3,36.28-1.39,7.17-4.34,16.49-7.21,22.82-2.17,4.73-7.52,13.91-9.87,16.91-.8,1-.98.39-.54-1.82M120,55.14c-8.07-4.11-20.5-8.5-27.38-9.7-2.42-.41-6.51-.64-9.14-.51-5.67.28-5.42,0,3.68-4.31,7.56-3.57,13.88-5.66,22.44-7.46,9.63-2.04,27.72-2.05,37.2-.04,10.23,2.17,22.28,6.65,29.06,10.83l2.01,1.24-4.62-.23c-9.2-.47-22.6,3.25-37.01,10.27-4.34,2.12-8.12,3.81-8.39,3.75-.25-.05-3.81-1.78-7.86-3.84" fill="#107c10"/>
</svg>