<?xml version="1.0" encoding="UTF-8"?>
<svg id="Layer_1" xmlns="http://www.w3.org/2000/svg" baseProfile="tiny" version="1.2" viewBox="0 0 256 256">
  <!-- Generator: Adobe Illustrator 30.2.1, SVG Export Plug-In . SVG Version: 2.1.1 Build 1)  -->
  <path d="M196,0H60C26.86,0,0,26.86,0,60v136c0,33.14,26.86,60,60,60h136c33.14,0,60-26.86,60-60V60c0-33.14-26.86-60-60-60Z" fill="#f4f2ed"/>
  <path d="M59.74,187.25l17.02,29.49h102.46l17.03-29.49H59.74ZM230.38,128l-17.17,29.76h-108.97l108.97-59.52,17.17,29.76ZM25.62,128l17.17-29.76h108.97l-108.97,59.52-17.17-29.76ZM59.74,68.75l17.02-29.49h102.46l17.03,29.49H59.74Z" fill="#15a6f0"/>
</svg>